<?xml version="1.0" encoding="UTF-8"?>
<svg id="Capa_1" xmlns="http://www.w3.org/2000/svg" version="1.1" viewBox="0 0 100 50">
  <!-- Generator: Adobe Illustrator 29.7.1, SVG Export Plug-In . SVG Version: 2.1.1 Build 8)  -->
  <defs>
    <style>
      .st0 {
        fill: #fff;
      }
    </style>
  </defs>
  <path class="st0" d="M30.99,31.47c.03-.27.14-.5.28-.68-2.2.02-4.57-.06-5.47,0l-1.03-2.02v-3.64h3.7c.27,0,.32-.39.06-.46-1.16-.31-2.88-.38-3.46-.64-.8-.36-1.01-2.32-1.9-2.44v-1.02s-1.26,0-1.26,0v4.56c-1.07.35-.87-.95-1.17-1.03-.25-.07-1.83-.15-2.25-.23-3.57-.75-6.62-1.69-10.89-.35-1.63.51-6.09,2.13-5.41,3.94.31.84,1.92,3.31,2.87,2.01.39-.53,1.26-2.02,2.06-2.64.76-.59,1.92-1.15,4.44-1.41,2.2-.23,4.04.31,5.27.88,1.55.72,1.29,1.75,1.28,2.06-.01.56-.34,1.32-.06,1.78.22.36.88.66,2.86.3v-2.18s1.01,0,1.01,0v5.47s1.03-.11,1.03-.11l.38-1.17h7.77c-.11-.27-.15-.6-.11-.99Z"/>
  <path class="st0" d="M68.53,32.43c-.14-.29-.19-.64-.12-.94.04-.16.11-.3.2-.42-2.44-.02-4.97-.04-7.55-.07.16.21.26.47.26.75,0,.25-.08.48-.21.68h7.42Z"/>
  <path class="st0" d="M96.51,24.58c-.26-.24-.59-.37-.95-.37l-8.25-.03c.09.17.15.37.16.57,0,.05,0,.1,0,.16,2.62-.1,4.98-.15,5.58.12.17.08,2.87.45,2.88.55-.72,1.12-6.37,5.22-7.77,5.35-.3.03-.7.05-1.17.07.16.21.25.47.27.75.01.24-.06.47-.19.67h3.15s5.19-4.81,5.19-4.81l2.46-1.77-1.36-1.26Z"/>
  <path class="st0" d="M83.36,32.42c-.12-.2-.2-.42-.21-.67-.01-.24.06-.47.19-.66-2.84.04-6.59.03-10.82,0,.18.22.29.5.3.8,0,.19-.03.37-.11.53h10.65Z"/>
  <path class="st0" d="M77.4,24.49l1.9.55c.57.14,2.15.12,4.04.04-.13-.28-.13-.61-.04-.92l-5.85-.02c-.21,0-.25.29-.05.35Z"/>
  <g>
    <path class="st0" d="M31.69,23.55v9c0,.46.29.78.86.95.29.08.47.17.54.27s.11.33.11.69c0,.55-.04.88-.13.98-.08.1-.29.15-.62.15h-6.78c-.38,0-.62-.08-.73-.23-.11-.15-.17-.47-.17-.94,0-.32.03-.52.08-.6.05-.08.22-.19.48-.3.37-.16.59-.29.68-.41.09-.11.13-.28.13-.51V14.68c0-.26-.05-.45-.16-.59-.1-.14-.33-.28-.67-.43-.25-.11-.37-.35-.37-.73,0-.04,0-.26.01-.65.06-.42.3-.62.71-.62h9.25c.28,0,.47.04.58.13.11.09.19.31.25.65,0,.06.02.14.04.25l.67,3.29c.04.21.06.39.06.53,0,.32-.24.47-.71.47-.63,0-1.03-.12-1.19-.36-.16-.24-.41-.83-.74-1.76-.21-.57-.41-.96-.62-1.16-.2-.2-.52-.3-.94-.3-.12,0-.34.01-.65.04v8.47h.76c.4,0,.67-.09.82-.27.15-.18.26-.5.33-.94.09-.5.17-.83.25-.97.08-.14.41-.22.98-.22.4,0,.64.04.72.12.08.08.13.23.13.46v5.37c0,.23-.04.38-.12.44-.08.07-.33.1-.76.1-.51,0-.84-.08-.97-.25-.13-.17-.24-.58-.3-1.23-.08-.66-.44-.99-1.08-.99h-.76Z"/>
    <path class="st0" d="M45.26,21.22v-2.86c0-.79-.32-1.19-.96-1.19-.88,0-1.32.6-1.32,1.79,0,.67-.08,1.15-.23,1.44-.15.29-.5.53-1.04.73-.54.2-1.11.3-1.73.3-1.26,0-1.88-.67-1.88-2.02,0-1.27.55-2.3,1.64-3.1,1.09-.8,2.52-1.2,4.28-1.2,1.16,0,2.2.16,3.12.47.92.32,1.66.85,2.22,1.6.55.75.83,1.58.83,2.47v13.53c.02.07.17.22.44.44.2.15.3.37.3.65,0,.4-.05.67-.16.84-.11.16-.37.31-.79.45-.42.14-.95.21-1.58.21-.77,0-1.41-.14-1.93-.42-.51-.28-.91-.83-1.2-1.65-.86.89-1.56,1.46-2.09,1.71s-1.08.37-1.65.37c-1.25,0-2.22-.49-2.91-1.47-.69-.98-1.03-2.59-1.03-4.82,0-2.23.32-3.78.96-4.64.64-.86,1.9-1.66,3.77-2.39,1.19-.45,2.17-.87,2.95-1.24ZM45.26,23.15c-1.12.49-1.78,1.05-2,1.67-.22.62-.33,2.01-.33,4.17,0,1.59.09,2.59.27,3.01s.48.63.92.63c.76,0,1.14-.63,1.14-1.9v-7.58Z"/>
    <path class="st0" d="M57.73,18.03v14.36c0,.35.1.65.3.93.2.27.49.41.85.41.49,0,.88-.3,1.15-.91.27-.61.41-1.4.41-2.37v-.42c-.01-.52.08-.84.27-.93.19-.1.52-.15.99-.15.41,0,.68.07.83.22s.22.46.22.93c0,1.53-.4,2.86-1.2,4-.8,1.13-1.94,1.7-3.41,1.7-1.73,0-3.15-.87-4.26-2.61-1.11-1.74-1.66-4.2-1.66-7.39,0-2.39.28-4.38.85-5.96s1.25-2.77,2.05-3.54c.81-.77,1.81-1.16,3.02-1.16,1.43,0,2.57.48,3.4,1.43.84.95,1.25,2.06,1.25,3.31,0,.65-.14,1.21-.42,1.66-.28.45-.7.68-1.26.68s-1.03-.22-1.34-.65c-.31-.43-.47-.98-.47-1.63,0-.28.03-.6.09-.96.08-.42.12-.76.12-1.01s-.09-.47-.28-.65c-.19-.18-.41-.27-.65-.27s-.44.1-.61.31c-.17.21-.25.43-.25.68Z"/>
    <path class="st0" d="M70.42,15.13c1.86,0,3.41.83,4.66,2.5,1.25,1.67,1.87,4.14,1.87,7.42,0,3.54-.63,6.22-1.9,8.03-1.27,1.81-2.84,2.72-4.73,2.72-1.3,0-2.44-.42-3.4-1.25-.96-.83-1.7-1.94-2.22-3.32-.52-1.38-.78-3.28-.78-5.68,0-3.43.6-6.03,1.79-7.79,1.19-1.76,2.76-2.64,4.71-2.64ZM71.49,18.85c0-1.23-.36-1.84-1.07-1.84-.77,0-1.16.75-1.16,2.25v12.32c0,1.49.35,2.24,1.05,2.24.78,0,1.17-.75,1.17-2.24v-12.74Z"/>
    <path class="st0" d="M84.09,17.35c1.18-1.48,2.52-2.22,4.03-2.22,1.03,0,1.82.33,2.37,1,.55.67.82,1.51.82,2.51v14.21c0,.32.12.56.37.73.23.14.34.49.34,1.07,0,.45-.04.73-.11.82s-.23.13-.47.13h-4.17c-.59-.5-.89-1.16-.89-1.97v-14.1c0-.77-.32-1.16-.95-1.16-.42,0-.87.22-1.35.65v13.84c0,.36.17.63.52.83.21.12.31.34.31.65v.76c0,.34-.24.5-.73.5h-5.26c-.26,0-.42-.04-.49-.11-.07-.07-.1-.26-.1-.56v-.55c0-.29.09-.49.27-.61.24-.17.39-.33.46-.47.07-.15.1-.47.1-.98v-14.5c0-.35-.17-.6-.5-.76-.19-.09-.28-.25-.28-.47v-.79c0-.31.14-.46.42-.46h4.83c.21,0,.34.03.39.09.05.06.07.18.07.37v1.56Z"/>
  </g>
  <g>
    <path class="st0" d="M16.48,13.93v2.82h.34c.09,0,.16-.02.2-.06s.08-.13.1-.26c.04-.23.07-.37.1-.42s.06-.07.12-.07c.26,0,.41.01.44.03s.05.1.05.25v1.65c0,.1-.02.17-.05.2s-.14.05-.31.05c-.11,0-.19-.02-.22-.06s-.07-.16-.11-.35c-.04-.17-.07-.28-.11-.32s-.09-.06-.16-.06h-.39v3.41h.26c.16,0,.27-.05.33-.14s.16-.35.29-.78c.06-.18.11-.3.17-.36s.16-.08.31-.08c.2,0,.31.07.31.2,0,.04,0,.1-.02.17l-.18,1.12c-.03.2-.06.33-.08.37s-.09.06-.2.06h-3.3c-.08,0-.14-.02-.16-.06s-.03-.15-.03-.33c0-.12.06-.2.18-.25.18-.08.27-.18.27-.31v-6.16c0-.06-.08-.13-.22-.19-.1-.04-.16-.08-.18-.12s-.03-.14-.03-.29c0-.13,0-.21.03-.23s.08-.04.17-.04h3.15c.08,0,.14.01.17.04s.06.09.08.19l.25,1.28c.01.07.02.11.02.13,0,.09-.08.13-.24.13-.18,0-.3-.02-.36-.06-.06-.04-.12-.14-.17-.31-.1-.3-.19-.5-.26-.62s-.16-.17-.25-.17h-.33Z"/>
    <path class="st0" d="M18.5,13.73v-.25c0-.11.07-.16.21-.16h1.53c.08,0,.14,0,.16.02s.04.07.04.17v6.91c0,.15.05.25.15.28.07.03.1.08.1.17v.28c0,.1-.07.15-.22.15h-1.81c-.1,0-.15-.05-.15-.15v-.28c0-.12.05-.2.15-.26.07-.03.11-.06.12-.09s.02-.08.02-.16v-6.12c0-.12-.04-.19-.13-.23-.11-.06-.17-.15-.17-.27Z"/>
  </g>
  <path class="st0" d="M55.39,32.47c-.14-.29-.19-.64-.12-.94.04-.16.11-.3.2-.42-2.44-.02-4.97-.04-7.55-.07.16.21.26.47.26.75,0,.25-.08.48-.21.68h7.42Z"/>
  <path class="st0" d="M37.98,32.25c-.14-.29-.19-.64-.12-.94.04-.16.11-.3.2-.42-2.44-.02-4.97-.04-7.55-.07.16.21.26.47.26.75,0,.25-.08.48-.21.68h7.42Z"/>
</svg>