<?xml version="1.0" encoding="UTF-8"?>
<svg id="Capa_1" xmlns="http://www.w3.org/2000/svg" version="1.1" viewBox="0 0 265.98 18.96">
  <!-- Generator: Adobe Illustrator 29.7.1, SVG Export Plug-In . SVG Version: 2.1.1 Build 8)  -->
  <defs>
    <style>
      .st0, .st1, .st2, .st3 {
        stroke: #000;
        stroke-miterlimit: 10;
      }

      .st0, .st3 {
        stroke-linecap: round;
        stroke-width: .67px;
      }

      .st1, .st2 {
        stroke-width: .89px;
      }

      .st1, .st3 {
        fill: none;
      }
    </style>
  </defs>
  <g>
    <path class="st2" d="M42.85,43.25"/>
    <line class="st2" x1="139.54" y1="7.7" x2="251.57" y2="7.7"/>
    <circle class="st2" cx="13.37" cy="7.62" r=".68"/>
    <circle class="st2" cx="252.59" cy="7.7" r=".68"/>
    <path class="st1" d="M133.57,11.08c-.41-.55-.96-1.21-1.71-1.87-.8-.71-1.58-1.21-2.21-1.55.59-.51,1.24-1.13,1.89-1.89.62-.71,1.12-1.4,1.53-2.03.38.6,1,1.42,1.94,2.19.72.59,1.42.98,1.98,1.24-.43.62-.94,1.29-1.54,1.98-.65.75-1.29,1.39-1.89,1.94Z"/>
    <path class="st3" d="M12.36,7.43c-.41-.08-1.02-.24-1.68-.61-.57-.33-.98-.71-1.25-.99-1.08-1.07-1.1-2.75-.2-3.74.75-.81,2.02-1.04,3.12-.52.25.16.77.54,1.13,1.23.39.73.39,1.41.38,1.7-.03.63-.42,1.18-.99,1.42-.89.38-1.67-.25-1.7-.28-.06-.05-.85-.74-.57-1.56.16-.47.6-.81,1.13-.9"/>
    <path class="st3" d="M253.59,7.41c.42,0,1.05-.06,1.76-.32.62-.23,1.09-.53,1.4-.77,1.24-.88,1.55-2.53.83-3.65-.6-.92-1.82-1.37-2.99-1.04-.27.11-.85.4-1.33,1.02-.5.65-.63,1.32-.66,1.61-.07.62.21,1.23.74,1.57.82.52,1.69.03,1.73.01.07-.04.96-.58.82-1.44-.08-.49-.45-.9-.97-1.08"/>
    <path class="st3" d="M12.69,8.15c-.39,0-1.73.07-2.95,1.08-1.14.94-1.48,2.13-1.58,2.52-.38,1.55.08,3.34,1.32,4.48.77.7,1.62.96,2.06,1.06.25.06,1.78.37,3.1-.61.22-.16.97-.75,1.26-1.81.34-1.24-.01-2.5-.88-3.19-.63-.5-1.36-.55-1.67-.55-.14,0-1.11-.02-1.8.76-.5.57-.55,1.22-.55,1.42,0,.11,0,.73.49,1.23.47.48,1.06.5,1.18.5"/>
    <path class="st3" d="M253.03,7.94c.39,0,1.73.07,2.95,1.08,1.14.94,1.48,2.13,1.58,2.52.38,1.55-.08,3.34-1.32,4.48-.77.7-1.62.96-2.06,1.06-.25.06-1.78.37-3.1-.61-.22-.16-.97-.75-1.26-1.81-.34-1.24.01-2.5.88-3.19.63-.5,1.36-.55,1.67-.55.14,0,1.11-.02,1.8.76.5.57.55,1.22.55,1.42,0,.11,0,.73-.49,1.23-.47.48-1.06.5-1.18.5"/>
    <path class="st0" d="M1.63,7.33l3.55-1.12c.21-.07.78-.17,1.01-.16.21,0,.43,0,.69.05.49.1.7.19.99.36.35.21.54.46.61.75.02.1.04.21.03.33-.03.37-.26.61-.32.67-.17.18-.54.51-1.12.69-.11.03-.21.06-.31.08-.45.08-.91.02-1.33-.14-1.26-.5-2.53-1-3.79-1.5Z"/>
    <path class="st0" d="M264.56,8.19l-3.55-1.12c-.21-.07-.78-.17-1.01-.16-.21,0-.43,0-.69.05-.49.1-.7.19-.99.36-.35.21-.54.46-.61.75-.02.1-.04.21-.03.33.03.37.26.61.32.67.17.18.54.51,1.12.69.11.03.21.06.31.08.45.08.91.02,1.33-.14,1.26-.5,2.53-1,3.79-1.5Z"/>
  </g>
  <line class="st2" x1="14.38" y1="7.66" x2="126.41" y2="7.66"/>
</svg>